<svg width="221" height="164" fill="none" xmlns="http://www.w3.org/2000/svg"><g clip-path="url(#clip0)"><path d="M105.496 63.962l19.577-21.123-2.843-2.635-1.683-1.56-2.842-2.635-19.578 21.123c-3.548 3.829-15.052 1.805-20.11 7.262l-42.92 46.31c-1.29 1.392-2.511 4.575-.425 6.509l7.025 6.51 1.683 1.561 7.023 6.509c2.088 1.935 5.171.478 6.461-.914l42.922-46.31c5.057-5.456 2.159-16.777 5.71-20.608zm-11.527.847c-1.055.204-2.32.524-3.743.925-1.433.398-2.978.976-4.617 1.638-.767.405-1.565.834-2.328 1.296-.625.661-1.293.957-1.977 1.88-1.383 1.605-2.835 3.294-4.34 5.042-3.022 3.485-6.347 7.114-9.66 10.746-6.696 7.208-13.604 14.224-18.956 19.322-2.655 2.568-4.987 4.597-6.564 6.07-1.603 1.448-2.558 2.244-2.558 2.244s.72-1.013 2.042-2.722c1.35-1.684 3.195-4.163 5.555-7.006C51.5 98.521 57.972 91.1 64.65 83.878c3.369-3.582 6.734-7.172 9.983-10.448 1.629-1.632 3.204-3.209 4.698-4.71.64-.745 1.82-1.473 2.696-2.108.98-.456 1.942-.828 2.854-1.176.932-.232 1.82-.458 2.667-.67.852-.12 1.658-.232 2.418-.343 1.52-.166 2.835-.276 3.923-.306 2.17-.082 3.406.035 3.406.035s-1.231.198-3.327.657z" fill="#A30000"/></g><g clip-path="url(#clip1)"><path d="M135.458 49.957l10.036-26.995-3.633-1.35-2.152-.8-3.632-1.351-10.036 26.995c-1.819 4.892-13.225 7.412-15.818 14.385l-22.004 59.183c-.662 1.779-.575 5.187 2.091 6.179l8.977 3.337 2.152.8c2.691 1.001 7.16 2.663 8.976 3.337 2.668.992 4.962-1.531 5.623-3.31l22.004-59.183c2.593-6.973-4.405-16.331-2.584-21.227zm-10.332 5.181c-.898.592-1.944 1.37-3.107 2.284-1.173.914-2.38 2.038-3.643 3.276a46.157 46.157 0 00-1.657 2.085c-.326.85-.83 1.379-1.11 2.492-.666 2.011-1.364 4.127-2.088 6.317-1.464 4.375-3.152 8.997-4.829 13.62-3.438 9.216-7.147 18.337-10.15 25.092-1.474 3.387-2.855 6.152-3.751 8.115-.93 1.951-1.508 3.05-1.508 3.05s.279-1.211.85-3.295c.604-2.072 1.364-5.067 2.46-8.595 2.14-7.075 5.291-16.403 8.709-25.628 1.747-4.596 3.489-9.199 5.241-13.466.883-2.13 1.737-4.189 2.546-6.147.308-.933 1.12-2.055 1.687-2.977.732-.795 1.48-1.507 2.19-2.175.773-.57 1.507-1.119 2.21-1.638.742-.436 1.444-.847 2.104-1.24 1.341-.733 2.515-1.336 3.509-1.779 1.975-.905 3.162-1.268 3.162-1.268s-1.063.653-2.825 1.877z" fill="#E77F7F"/></g><path d="M168.02 45.8V17h-10.047v28.8c0 5.22-9.813 11.556-9.813 18.996v63.142c0 1.897 1.269 5.062 4.114 5.062H173.723c2.846 0 4.117-3.165 4.117-5.062V64.796c0-7.44-9.82-13.773-9.82-18.996zm-7.879 8.457c-.635.868-1.345 1.962-2.116 3.224-.781 1.265-1.521 2.74-2.273 4.34a45.084 45.084 0 00-.826 2.532c-.009.91-.298 1.581-.172 2.723.076 2.117.159 4.343.244 6.648.152 4.61.181 9.532.22 14.449-.011 9.837-.308 19.679-.768 27.056-.202 3.689-.533 6.761-.689 8.914a94.981 94.981 0 01-.35 3.384s-.161-1.232-.353-3.384c-.155-2.153-.486-5.225-.688-8.914-.46-7.377-.758-17.22-.768-27.056.035-4.918.063-9.838.219-14.45.085-2.303.168-4.53.245-6.647-.038-.983.332-2.317.543-3.38.409-1 .862-1.927 1.294-2.801.526-.804 1.023-1.574 1.501-2.305.543-.667 1.058-1.297 1.54-1.896 1.002-1.154 1.892-2.129 2.669-2.89 1.536-1.536 2.522-2.29 2.522-2.29s-.769.982-1.994 2.743z" fill="#EAD076"/><defs><clipPath id="clip0"><path fill="#fff" transform="rotate(42.825 39.426 100.539)" d="M0 0h116v116H0z"/></clipPath><clipPath id="clip1"><path fill="#fff" transform="rotate(20.395 40.433 240.723)" d="M0 0h116v116H0z"/></clipPath></defs></svg>