<svg width="329" height="145" fill="none" xmlns="http://www.w3.org/2000/svg"><g clip-path="url(#clip0)"><path d="M93.269 56.548l17.308-18.674-2.514-2.33-1.488-1.38-2.513-2.328s-14.17 15.29-17.308 18.674c-3.137 3.385-13.308 1.596-17.779 6.42L31.03 97.873c-1.141 1.23-2.22 4.045-.376 5.754a43561.095 43561.095 0 007.7 7.136l6.209 5.755c1.845 1.711 4.571.422 5.712-.808L88.22 74.767c4.471-4.824 1.91-14.832 5.049-18.219zm-10.191.75c-.933.18-2.051.463-3.31.817-1.266.352-2.632.863-4.082 1.449-.677.358-1.383.736-2.058 1.145-.552.585-1.143.846-1.747 1.662-1.223 1.419-2.507 2.913-3.837 4.458-2.672 3.081-5.611 6.289-8.541 9.5-5.92 6.373-12.027 12.576-16.758 17.083-2.348 2.27-4.41 4.064-5.804 5.366-1.417 1.281-2.261 1.984-2.261 1.984s.636-.895 1.805-2.406c1.193-1.49 2.825-3.68 4.91-6.194 4.136-5.06 9.858-11.62 15.763-18.005 2.978-3.168 5.954-6.341 8.826-9.237 1.44-1.444 2.832-2.837 4.154-4.164.566-.66 1.608-1.303 2.383-1.865a38.06 38.06 0 012.523-1.039c.824-.205 1.609-.405 2.358-.592.753-.106 1.466-.205 2.138-.304 1.343-.146 2.506-.244 3.468-.27 1.919-.073 3.012.03 3.012.03s-1.09.175-2.942.581z" fill="#A30000"/></g><g clip-path="url(#clip1)"><path d="M119.758 44.167l8.873-23.866-3.212-1.194-1.902-.708-3.211-1.194-8.874 23.866c-1.608 4.326-11.692 6.553-13.984 12.718l-19.454 52.324c-.585 1.573-.508 4.586 1.849 5.462a25307.527 25307.527 0 009.839 3.659l7.935 2.95c2.359.877 4.387-1.354 4.972-2.927l19.454-52.323c2.292-6.165-3.895-14.44-2.285-18.767zm-9.134 4.58c-.794.524-1.719 1.211-2.747 2.02-1.037.807-2.105 1.801-3.221 2.896-.489.589-.997 1.208-1.465 1.844-.288.751-.734 1.218-.981 2.203-.589 1.778-1.206 3.648-1.846 5.584-1.295 3.868-2.787 7.955-4.27 12.041-3.04 8.149-6.318 16.213-8.972 22.184-1.304 2.995-2.525 5.439-3.317 7.175-.822 1.725-1.334 2.696-1.334 2.696s.247-1.07.751-2.913c.534-1.831 1.207-4.48 2.176-7.598 1.892-6.255 4.677-14.503 7.7-22.658 1.544-4.064 3.084-8.133 4.633-11.906.78-1.883 1.536-3.703 2.25-5.433.273-.826.99-1.818 1.492-2.633a38.21 38.21 0 011.936-1.923c.683-.504 1.333-.99 1.954-1.448.656-.385 1.277-.748 1.86-1.096 1.186-.648 2.224-1.182 3.103-1.573 1.746-.8 2.795-1.12 2.795-1.12s-.94.576-2.497 1.659z" fill="#E77F7F"/></g><g clip-path="url(#clip2)"><path d="M148.546 40.492V15.03h-8.883v25.462c0 4.615-8.675 10.217-8.675 16.794v55.823c0 1.678 1.122 4.476 3.637 4.476h18.963c2.516 0 3.64-2.798 3.64-4.476V57.286c0-6.577-8.682-12.176-8.682-16.794zm-6.965 7.477c-.562.767-1.19 1.734-1.872 2.85-.69 1.118-1.344 2.422-2.009 3.836-.253.723-.513 1.48-.731 2.24-.008.804-.263 1.397-.151 2.406.067 1.872.14 3.84.215 5.878.135 4.076.16 8.427.195 12.774-.01 8.697-.273 17.398-.679 23.92-.179 3.262-.471 5.978-.609 7.881-.169 1.903-.31 2.992-.31 2.992s-.142-1.089-.311-2.992c-.138-1.903-.431-4.619-.609-7.881-.407-6.522-.67-15.223-.679-23.92.031-4.347.056-8.698.194-12.774l.216-5.878c-.033-.868.294-2.048.48-2.987.362-.884.762-1.704 1.144-2.477.465-.71.905-1.391 1.327-2.038.481-.59.936-1.147 1.362-1.676.885-1.02 1.672-1.882 2.36-2.555 1.358-1.358 2.229-2.025 2.229-2.025s-.68.868-1.762 2.426z" fill="#EAD076"/></g><path d="M162.344 92.031l13-37.531h6.562L165.031 100h-5.312l-16.844-45.5h6.531l12.938 37.531zM193.406 100h-5.781V66.187h5.781V100zm-6.25-42.781c0-.938.282-1.73.844-2.375.583-.646 1.438-.969 2.562-.969 1.126 0 1.98.323 2.563.969.583.646.875 1.437.875 2.375 0 .937-.292 1.718-.875 2.343-.583.626-1.437.938-2.563.938-1.124 0-1.979-.313-2.562-.938-.562-.624-.844-1.406-.844-2.343zm21 8.968l.188 4.25c2.583-3.25 5.958-4.874 10.125-4.874 7.146 0 10.75 4.03 10.812 12.093V100H223.5V77.625c-.021-2.438-.583-4.24-1.688-5.406-1.083-1.167-2.781-1.75-5.093-1.75-1.875 0-3.521.5-4.938 1.5-1.416 1-2.521 2.312-3.312 3.937V100h-5.781V66.187h5.468zM267.219 100h-29.813v-4.156l15.75-17.5c2.334-2.646 3.938-4.792 4.813-6.438.896-1.666 1.343-3.385 1.343-5.156 0-2.375-.718-4.323-2.156-5.844-1.437-1.52-3.354-2.281-5.75-2.281-2.875 0-5.114.823-6.718 2.469-1.584 1.625-2.376 3.896-2.376 6.812h-5.781c0-4.187 1.344-7.573 4.031-10.156 2.709-2.583 6.323-3.875 10.844-3.875 4.229 0 7.573 1.115 10.032 3.344 2.458 2.208 3.687 5.156 3.687 8.843 0 4.48-2.854 9.813-8.563 16l-12.187 13.22h22.844V100zm34.656-19.406c0 6.77-1.156 11.802-3.469 15.094-2.312 3.291-5.927 4.937-10.844 4.937-4.854 0-8.447-1.604-10.781-4.813-2.333-3.229-3.541-8.041-3.625-14.437v-7.719c0-6.687 1.156-11.656 3.469-14.906 2.313-3.25 5.937-4.875 10.875-4.875 4.896 0 8.5 1.573 10.812 4.719 2.313 3.125 3.5 7.958 3.563 14.5v7.5zm-5.781-7.906c0-4.896-.688-8.459-2.063-10.688-1.375-2.25-3.552-3.375-6.531-3.375-2.958 0-5.115 1.115-6.469 3.344s-2.052 5.656-2.093 10.281v9.25c0 4.917.708 8.552 2.124 10.906 1.438 2.334 3.605 3.5 6.5 3.5 2.855 0 4.969-1.104 6.344-3.312 1.396-2.209 2.125-5.688 2.188-10.438v-9.469z" fill="#000"/><defs><clipPath id="clip0"><path fill="#fff" transform="rotate(42.825 34.857 88.886)" d="M0 0h102.555v102.555H0z"/></clipPath><clipPath id="clip1"><path fill="#fff" transform="rotate(20.395 35.747 212.822)" d="M0 0h102.555v102.555H0z"/></clipPath><clipPath id="clip2"><path fill="#fff" transform="translate(92.83 15.03)" d="M0 0h102.555v102.555H0z"/></clipPath></defs></svg>