<?xml version="1.0"?>
<svg xmlns="http://www.w3.org/2000/svg" xmlns:xlink="http://www.w3.org/1999/xlink" xmlns:svgjs="http://svgjs.com/svgjs" version="1.1" width="512" height="512" x="0" y="0" viewBox="0 0 512 512" style="enable-background:new 0 0 512 512" xml:space="preserve" class=""><g><g xmlns="http://www.w3.org/2000/svg"><path d="m10 85v417h492v-492h-492z" fill="#ffffff" data-original="#ffffff" style="" class=""/><path d="m402 211v90c0 11.05 8.95 20 20 20h40v141h-412v-412h412v141h-40c-11.05 0-20 8.95-20 20z" fill="#f9fafb" data-original="#a0c8ff" style="" class=""/><path d="m50 236h352v40h-352z" fill="#ffffff" data-original="#ffffff" style="" class=""/><g fill="#b8ecbc"><circle cx="100" cy="186" r="50" fill="#ffffff" data-original="#b8ecbc" style="" class=""/><circle cx="200" cy="186" r="50" fill="#ffffff" data-original="#b8ecbc" style="" class=""/><circle cx="100" cy="412" r="50" fill="#ffffff" data-original="#b8ecbc" style="" class=""/><circle cx="200" cy="412" r="50" fill="#ffffff" data-original="#b8ecbc" style="" class=""/><circle cx="300" cy="412" r="50" fill="#ffffff" data-original="#b8ecbc" style="" class=""/><circle cx="150" cy="100" r="50" fill="#ffffff" data-original="#b8ecbc" style="" class=""/></g><g><path d="m509.07 2.93c-1.86-1.861-4.44-2.93-7.07-2.93h-492c-2.63 0-5.21 1.069-7.07 2.93-1.86 1.86-2.93 4.44-2.93 7.07v492c0 2.63 1.07 5.21 2.93 7.069 1.86 1.861 4.44 2.931 7.07 2.931h492c2.63 0 5.21-1.07 7.07-2.931 1.86-1.859 2.93-4.439 2.93-7.069v-91c0-5.51-4.49-10-10-10s-10 4.49-10 10v81h-472v-472h472v301c0 5.51 4.48 10 10 10 5.51 0 10-4.49 10-10v-311c0-2.63-1.07-5.21-2.93-7.07z" fill="#000000" data-original="#000000" style="" class=""/><circle cx="502" cy="366" r="10" fill="#000000" data-original="#000000" style="" class=""/><path d="m412 211c0-5.514 4.486-10 10-10h40c5.523 0 10-4.478 10-10v-141c0-5.522-4.477-10-10-10h-412c-5.523 0-10 4.478-10 10v412c0 5.522 4.477 10 10 10h412c5.523 0 10-4.478 10-10v-141c0-5.522-4.477-10-10-10h-40c-5.514 0-10-4.486-10-10zm-262-151c22.056 0 40 17.944 40 40s-17.944 40-40 40-40-17.944-40-40 17.944-40 40-40zm50 166c-22.056 0-40-17.944-40-40s17.944-40 40-40 40 17.944 40 40-17.944 40-40 40zm-44.673 0h-10.654c1.936-2.16 3.716-4.46 5.327-6.884 1.611 2.424 3.391 4.724 5.327 6.884zm-15.327-40c0 22.056-17.944 40-40 40s-40-17.944-40-40 17.944-40 40-40 40 17.944 40 40zm-80 60h332v20h-332zm392-65h-30c-16.542 0-30 13.458-30 30v15h-147.327c9.522-10.624 15.327-24.645 15.327-40 0-32.412-25.838-58.886-57.996-59.949 4.977-7.375 7.996-15.996 7.996-26.051 0-15.355-5.805-29.376-15.327-40h257.327zm-346.673-121c-9.522 10.624-15.327 24.645-15.327 40 0 9.658 2.708 18.404 7.232 26.07-14.269.651-27.251 6.31-37.232 15.257v-81.327zm194.673 392c-22.056 0-40-17.944-40-40s17.944-40 40-40 40 17.944 40 40-17.944 40-40 40zm-44.673 0h-10.654c1.936-2.16 3.716-4.46 5.327-6.884 1.611 2.424 3.391 4.724 5.327 6.884zm-55.327 0c-22.056 0-40-17.944-40-40s17.944-40 40-40 40 17.944 40 40-17.944 40-40 40zm-44.673 0h-10.654c1.936-2.16 3.716-4.46 5.327-6.884 1.611 2.424 3.391 4.724 5.327 6.884zm-55.327 0c-22.056 0-40-17.944-40-40s17.944-40 40-40 40 17.944 40 40-17.944 40-40 40zm322-121h30v121h-107.327c9.522-10.624 15.327-24.645 15.327-40 0-33.084-26.916-60-60-60-20.85 0-39.243 10.696-50 26.884-10.757-16.188-29.15-26.884-50-26.884s-39.243 10.696-50 26.884c-10.757-16.188-29.15-26.884-50-26.884-15.355 0-29.376 5.805-40 15.327v-81.327h332v15c0 16.542 13.458 30 30 30z" fill="#000000" data-original="#000000" style="" class=""/></g></g></g></svg>
